<?xml version="1.0" encoding="UTF-8" standalone="no"?>
<svg
   xmlns:dc="http://purl.org/dc/elements/1.1/"
   xmlns:cc="http://creativecommons.org/ns#"
   xmlns:rdf="http://www.w3.org/1999/02/22-rdf-syntax-ns#"
   xmlns:svg="http://www.w3.org/2000/svg"
   xmlns="http://www.w3.org/2000/svg"
   xmlns:sodipodi="http://sodipodi.sourceforge.net/DTD/sodipodi-0.dtd"
   xmlns:inkscape="http://www.inkscape.org/namespaces/inkscape"
   version="1.0"
   width="100"
   height="97.562599"
   viewBox="0 0 1000 975.62598"
   preserveAspectRatio="xMidYMid meet"
   id="svg170"
   sodipodi:docname="logo2.svg"
   inkscape:version="0.92.4 (5da689c313, 2019-01-14)"
   inkscape:export-filename="C:\Users\Mendy\Desktop\logo2.png"
   inkscape:export-xdpi="77.760002"
   inkscape:export-ydpi="77.760002">
  <metadata
     id="metadata176">
    <rdf:RDF>
      <cc:Work
         rdf:about="">
        <dc:format>image/svg+xml</dc:format>
        <dc:type
           rdf:resource="http://purl.org/dc/dcmitype/StillImage" />
        <dc:title></dc:title>
      </cc:Work>
    </rdf:RDF>
  </metadata>
  <defs
     id="defs174" />
  <sodipodi:namedview
     pagecolor="#ffffff"
     bordercolor="#666666"
     borderopacity="1"
     objecttolerance="10"
     gridtolerance="10"
     guidetolerance="10"
     inkscape:pageopacity="0"
     inkscape:pageshadow="2"
     inkscape:window-width="1280"
     inkscape:window-height="962"
     id="namedview172"
     showgrid="false"
     fit-margin-top="15"
     fit-margin-bottom="10"
     fit-margin-left="10"
     fit-margin-right="10"
     inkscape:zoom="1.0824912"
     inkscape:cx="174.53415"
     inkscape:cy="-89.086463"
     inkscape:window-x="-8"
     inkscape:window-y="-8"
     inkscape:window-maximized="1"
     inkscape:current-layer="svg170" />
  <g
     id="layer101"
     transform="matrix(0.11220196,0,0,0.11220196,56.241235,50.168865)"
     style="fill:#1142a8;stroke:none">
    <path
       d="m 2658,7168 c -9,-7 -57,-85 -106,-174 -206,-371 -429,-648 -687,-854 -344,-274 -771,-442 -1270,-500 -161,-18 -165,-19 -165,-43 0,-12 38,-101 84,-197 46,-96 110,-247 141,-334 67,-189 70,-196 95,-196 29,0 33,-17 10,-47 l -20,-28 25,-130 c 51,-261 51,-584 0,-838 -53,-268 -178,-581 -326,-819 -27,-44 -49,-86 -49,-94 0,-16 23,-29 166,-87 366,-150 601,-305 859,-569 246,-251 416,-487 582,-808 88,-170 193,-396 193,-415 0,-19 135,-317 145,-321 6,-3 38,13 71,35 105,70 370,207 502,259 126,51 385,120 531,143 48,7 171,9 355,6 304,-5 387,-15 644,-79 205,-51 566,-188 787,-299 134,-67 197,-83 209,-53 4,11 19,51 33,89 47,130 171,389 239,500 157,257 376,518 544,648 149,116 180,145 180,173 0,21 4,23 25,18 19,-5 52,9 143,59 281,156 531,270 762,346 120,39 160,63 160,94 0,13 -46,100 -101,193 -273,456 -403,917 -369,1308 28,323 96,546 246,806 115,199 124,217 118,233 -3,10 -74,38 -187,76 -215,70 -517,191 -561,224 -17,13 -74,50 -126,82 -496,307 -800,715 -1025,1375 -57,167 -53,160 -83,160 -14,0 -83,-25 -155,-56 -393,-169 -706,-250 -1060,-276 -253,-19 -555,11 -799,78 -175,48 -444,167 -624,275 -85,51 -109,57 -136,37 z m 1852,-873 c 0,-8 -7,-15 -15,-15 -16,0 -20,12 -8,23 11,12 23,8 23,-8 z m -620,-25 c 0,-5 -7,-10 -15,-10 -8,0 -15,5 -15,10 0,6 7,10 15,10 8,0 15,-4 15,-10 z m 108,-1222 c -7,-19 -38,-22 -38,-4 0,10 9,16 21,16 12,0 19,-5 17,-12 z m -402,-373 c 8,-33 0,-51 -25,-58 -19,-5 -21,-1 -21,39 0,37 3,44 20,44 13,0 22,-9 26,-25 z m 164,-1015 c 0,-5 -9,-19 -21,-31 -17,-17 -23,-18 -37,-7 -45,35 -41,48 13,48 25,0 45,-4 45,-10 z m 3168,-32 c -2,-15 -10,-23 -23,-23 -13,0 -21,8 -23,23 -3,18 1,22 23,22 22,0 26,-4 23,-22 z m 7,-433 c 0,-22 -31,-33 -48,-16 -7,7 -6,15 3,26 17,21 45,15 45,-10 z M 1960,2284 c 0,-9 -5,-14 -12,-12 -18,6 -21,28 -4,28 9,0 16,-7 16,-16 z"
       id="path2"
       inkscape:connector-curvature="0" />
  </g>
  <g
     id="layer102"
     transform="matrix(0.11220196,0,0,0.11220196,56.241235,50.168865)"
     style="fill:#ffffff;stroke:none">
    <path
       d="m 2761,6828 c -18,-48 4,-72 81,-88 34,-8 69,-21 79,-31 16,-16 23,-17 60,-6 47,14 60,32 29,40 -14,3 -20,13 -20,31 0,31 -11,33 -36,5 -15,-16 -26,-19 -54,-14 -76,13 -98,25 -105,56 -8,35 -22,38 -34,7 z"
       id="path5"
       inkscape:connector-curvature="0" />
    <path
       d="m 5195,6734 c -22,-7 -41,-14 -42,-14 -10,-1 -34,-67 -31,-88 3,-23 -2,-27 -30,-33 -38,-8 -59,-23 -44,-33 9,-5 197,8 271,20 l 33,5 -4,55 c -5,64 -26,89 -78,97 -20,3 -53,-1 -75,-9 z m 91,-32 c 18,-12 34,-49 28,-65 -8,-22 -99,-36 -138,-21 -22,9 -20,50 4,74 20,20 83,28 106,12 z"
       id="path7"
       inkscape:connector-curvature="0" />
    <path
       d="m 2716,6650 c -31,-37 -34,-70 -7,-70 13,0 20,10 25,31 5,24 10,30 28,27 16,-2 27,-16 39,-52 21,-57 18,-53 49,-61 37,-9 80,27 80,66 0,37 -15,37 -32,2 -17,-37 -40,-35 -51,2 -19,66 -31,80 -68,83 -30,3 -41,-2 -63,-28 z"
       id="path9"
       inkscape:connector-curvature="0" />
    <path
       d="m 3302,6604 c -29,-20 -29,-64 1,-92 13,-12 28,-22 34,-22 19,0 37,-30 25,-42 -8,-8 -23,-7 -57,2 -25,7 -49,10 -53,6 -12,-13 28,-35 75,-42 54,-8 75,8 100,75 9,25 23,56 31,69 13,21 13,22 -9,22 -13,0 -37,9 -54,20 -36,24 -63,25 -93,4 z m 76,-30 c 30,-21 26,-58 -6,-62 -32,-5 -52,15 -52,49 0,34 22,39 58,13 z"
       id="path11"
       inkscape:connector-curvature="0" />
    <path
       d="m 4663,6568 c 42,-112 40,-158 -8,-158 -30,0 -49,25 -71,92 -11,34 -25,58 -33,58 -18,0 -10,-88 14,-147 l 17,-43 57,6 c 79,9 105,34 96,94 -11,70 -31,110 -56,110 -13,0 -19,-5 -16,-12 z"
       id="path13"
       inkscape:connector-curvature="0" />
    <path
       d="m 3537,6546 c -3,-7 -9,-35 -12,-60 -4,-27 -18,-60 -31,-76 -14,-16 -20,-31 -15,-34 5,-4 12,-20 16,-36 9,-40 30,-60 66,-60 36,0 36,5 2,35 l -28,25 25,20 c 20,16 22,22 11,29 -11,7 -12,23 -7,67 4,32 9,68 12,81 5,18 2,23 -14,23 -11,0 -22,-6 -25,-14 z"
       id="path15"
       inkscape:connector-curvature="0" />
    <path
       d="m 3691,6536 c -9,-11 -41,-147 -41,-175 0,-6 93,-31 118,-31 23,0 12,18 -24,40 l -37,21 6,74 c 5,75 -1,96 -22,71 z"
       id="path17"
       inkscape:connector-curvature="0" />
    <path
       d="m 4435,6540 c -4,-6 -1,-43 5,-81 9,-52 9,-74 1,-82 -19,-19 -12,-27 19,-27 18,0 33,6 36,15 8,19 -30,178 -43,182 -6,2 -14,-1 -18,-7 z"
       id="path19"
       inkscape:connector-curvature="0" />
    <path
       d="m 2625,6500 c -42,-44 -40,-94 5,-131 41,-35 90,-46 131,-29 67,28 93,114 44,146 -33,22 -48,14 -91,-46 -20,-27 -40,-50 -45,-50 -5,0 -16,14 -24,31 -16,29 -15,32 9,64 14,19 26,36 26,39 0,16 -29,3 -55,-24 z m 165,-74 c 0,-29 -24,-56 -51,-56 -26,0 -24,28 3,57 28,30 48,29 48,-1 z"
       id="path21"
       inkscape:connector-curvature="0" />
    <path
       d="m 3881,6517 c -6,-7 -13,-40 -17,-73 -3,-32 -13,-69 -20,-81 -19,-31 -18,-33 16,-33 34,0 36,4 44,117 6,71 -2,95 -23,70 z"
       id="path23"
       inkscape:connector-curvature="0" />
    <path
       d="m 4262,6521 c -63,-6 -82,-18 -82,-53 0,-24 34,-56 67,-64 48,-10 55,-14 51,-27 -3,-6 -22,-14 -43,-17 -60,-8 -57,-30 5,-30 41,0 56,5 77,26 21,21 24,31 19,62 -3,20 -6,54 -6,75 0,24 -4,36 -12,35 -7,0 -41,-4 -76,-7 z m 26,-33 c 7,-7 12,-22 12,-35 0,-17 -6,-23 -23,-23 -29,0 -62,34 -54,55 7,18 48,20 65,3 z"
       id="path25"
       inkscape:connector-curvature="0" />
    <path
       d="m 5265,6519 c -53,-16 -85,-54 -85,-99 0,-32 53,-80 87,-80 53,0 59,12 40,73 -21,68 -21,77 1,77 30,0 59,-28 66,-65 8,-38 21,-46 31,-16 22,70 -60,135 -140,110 z m 2,-84 c 12,-26 14,-38 6,-46 -26,-26 -65,26 -49,66 9,25 25,17 43,-20 z"
       id="path27"
       inkscape:connector-curvature="0" />
    <path
       d="m 4020,6513 c -8,-3 -25,-15 -37,-26 -29,-26 -32,-104 -5,-137 19,-23 84,-37 126,-26 40,10 31,26 -14,26 -63,0 -90,23 -90,76 0,52 22,69 81,61 40,-5 62,9 38,24 -15,9 -75,11 -99,2 z"
       id="path29"
       inkscape:connector-curvature="0" />
    <path
       d="m 2493,6315 c -54,-55 -56,-83 -9,-122 56,-45 121,-77 142,-69 18,7 17,9 -7,29 -14,12 -47,37 -72,54 -53,37 -61,67 -23,84 25,12 26,12 133,-47 18,-10 39,-14 50,-10 16,7 16,9 -8,29 -36,30 -145,97 -156,96 -4,0 -27,-20 -50,-44 z"
       id="path31"
       inkscape:connector-curvature="0" />
    <path
       d="m 5420,6330 c 0,-6 7,-22 16,-36 13,-18 14,-28 6,-36 -9,-9 -26,-4 -67,16 -52,27 -56,28 -80,12 -17,-11 -25,-26 -25,-44 0,-37 22,-67 43,-59 14,5 15,10 5,32 -20,43 3,51 56,20 41,-24 50,-26 76,-15 38,16 45,39 23,84 -15,33 -53,51 -53,26 z"
       id="path33"
       inkscape:connector-curvature="0" />
    <path
       d="m 2997,6288 c -13,-24 -47,-88 -75,-143 -85,-171 -216,-355 -349,-492 -34,-35 -69,-63 -80,-63 -10,0 -23,-10 -28,-22 -28,-64 -326,-233 -525,-297 -102,-33 -279,-66 -414,-77 -46,-4 -90,-10 -97,-15 -11,-6 3,-42 63,-161 119,-237 171,-381 209,-579 19,-100 21,-136 16,-318 -4,-158 -10,-226 -25,-293 -28,-116 -98,-286 -184,-441 -57,-103 -68,-131 -57,-138 8,-5 57,-25 109,-45 140,-54 321,-148 408,-213 42,-32 124,-101 181,-154 65,-61 113,-97 126,-97 21,0 22,5 28,137 4,75 7,207 7,294 0,87 4,281 10,431 5,150 14,406 20,568 6,162 15,417 20,565 l 10,270 60,120 c 146,291 371,529 629,663 166,87 329,135 662,196 l 136,25 214,-49 c 352,-83 520,-136 704,-225 153,-74 255,-145 356,-245 128,-129 213,-266 274,-445 32,-95 37,-196 55,-1035 13,-610 38,-1421 45,-1428 2,-2 32,18 67,46 183,145 419,268 703,367 104,37 192,68 194,70 9,10 -12,56 -55,120 -100,151 -210,413 -249,595 -35,162 -30,423 11,585 25,97 102,268 175,391 38,62 69,120 69,126 0,8 -62,33 -149,61 -190,62 -381,153 -441,211 -29,28 -58,46 -81,50 -69,12 -276,207 -394,371 -113,158 -227,400 -286,610 -12,44 -26,84 -30,88 -6,8 -41,-4 -264,-98 -120,-51 -282,-100 -435,-132 -112,-24 -146,-27 -325,-26 -175,0 -214,3 -315,25 -186,41 -385,123 -576,239 -45,27 -86,49 -92,49 -6,0 -21,-19 -35,-42 z"
       id="path35"
       inkscape:connector-curvature="0" />
    <path
       d="m 2364,6150 c -32,-13 -64,-59 -64,-93 0,-38 57,-94 104,-102 60,-12 129,42 129,101 0,31 -37,72 -80,90 -36,16 -58,17 -89,4 z m 84,-55 c 37,-31 45,-59 23,-86 -43,-53 -154,34 -115,90 20,28 56,27 92,-4 z"
       id="path37"
       inkscape:connector-curvature="0" />
    <path
       d="m 5515,6039 c -39,-22 -81,-47 -93,-56 l -24,-15 21,-14 c 12,-9 21,-22 21,-30 0,-8 15,-30 33,-48 17,-18 40,-47 49,-64 9,-17 28,-34 42,-38 29,-7 98,24 149,67 45,39 14,38 -60,-1 -71,-38 -97,-37 -101,7 -3,29 2,35 54,70 100,66 76,85 -27,22 -50,-31 -78,-36 -97,-17 -24,24 -12,48 48,88 33,22 60,47 60,55 0,8 -1,15 -3,15 -1,0 -34,-18 -72,-41 z"
       id="path39"
       inkscape:connector-curvature="0" />
    <path
       d="m 2081,5913 c -37,-19 -71,-66 -71,-100 0,-30 62,-91 97,-95 49,-6 97,10 126,42 33,37 34,61 4,95 l -23,27 -61,-46 c -66,-50 -78,-54 -87,-30 -11,29 6,63 41,84 19,11 31,25 28,30 -8,13 -14,13 -54,-7 z m 129,-110 c 0,-25 -30,-53 -56,-53 -36,0 -40,21 -10,47 32,27 66,31 66,6 z"
       id="path41"
       inkscape:connector-curvature="0" />
    <path
       d="m 1814,5808 c -50,-34 -70,-68 -39,-68 10,0 33,14 52,31 19,16 42,29 51,27 30,-6 22,-33 -20,-63 -51,-37 -57,-52 -24,-66 14,-7 28,-23 31,-39 3,-15 17,-38 30,-50 32,-30 87,-23 150,20 l 46,31 -32,37 c -18,20 -42,41 -53,45 -20,8 -78,3 -110,-9 -9,-3 -16,-1 -16,5 0,6 6,11 14,11 20,0 68,59 60,73 -32,56 -72,60 -140,15 z m 168,-135 c 22,-20 24,-59 2,-67 -45,-17 -86,43 -49,71 24,16 25,16 47,-4 z"
       id="path43"
       inkscape:connector-curvature="0" />
    <path
       d="m 5735,5779 c -45,-26 -75,-63 -75,-93 -1,-17 -9,-56 -20,-86 -22,-63 -25,-111 -8,-128 23,-23 28,-12 28,58 0,76 14,97 45,66 9,-9 25,-16 36,-16 26,0 79,28 79,41 0,6 -18,32 -40,57 -45,50 -46,65 -7,70 26,3 50,-14 73,-54 10,-15 15,-16 25,-7 10,10 10,18 -2,39 -25,48 -94,75 -134,53 z m 10,-110 c 31,-38 21,-59 -20,-41 -19,9 -25,19 -25,42 0,38 12,38 45,-1 z"
       id="path45"
       inkscape:connector-curvature="0" />
    <path
       d="m 3800,5681 c -11,-21 -12,-104 -2,-136 15,-44 27,-52 85,-58 48,-5 59,-3 64,11 4,8 1,18 -5,20 -18,6 -15,72 3,72 8,0 17,-11 21,-25 3,-13 13,-30 22,-37 14,-12 15,-6 9,50 -4,35 -9,68 -12,73 -6,9 -133,49 -158,49 -9,0 -21,-9 -27,-19 z"
       id="path47"
       inkscape:connector-curvature="0" />
    <path
       d="m 1705,5659 c -46,-13 -95,-63 -95,-96 0,-67 76,-131 138,-117 76,19 116,61 106,112 -3,17 -12,33 -20,36 -7,3 -43,-9 -80,-26 -61,-28 -67,-29 -82,-14 -22,22 -8,45 41,69 20,10 37,25 37,33 0,16 -3,16 -45,3 z m 102,-126 c 7,-20 -36,-54 -64,-51 -39,4 -39,25 -1,48 35,21 59,23 65,3 z"
       id="path49"
       inkscape:connector-curvature="0" />
    <path
       d="m 5888,5614 c -33,-17 -58,-62 -58,-102 0,-28 26,-66 52,-74 9,-3 4,-15 -15,-38 -19,-22 -25,-36 -18,-43 12,-12 61,26 154,121 l 69,69 -44,41 c -48,46 -90,54 -140,26 z m 106,-40 c 23,-22 20,-39 -14,-73 -37,-36 -63,-46 -90,-31 -27,14 -27,69 0,98 25,26 81,30 104,6 z"
       id="path51"
       inkscape:connector-curvature="0" />
    <path
       d="m 1490,5560 c -24,-24 -20,-36 52,-167 42,-76 55,-93 75,-93 31,0 30,23 -7,85 -69,120 -80,145 -74,170 8,31 -17,34 -46,5 z"
       id="path53"
       inkscape:connector-curvature="0" />
    <path
       d="m 1367,5522 c -10,-10 -17,-27 -17,-36 0,-26 80,-203 100,-221 17,-15 50,-11 50,6 0,5 -23,55 -51,110 -39,79 -49,107 -44,130 8,34 -12,40 -38,11 z"
       id="path55"
       inkscape:connector-curvature="0" />
    <path
       d="m 3720,5478 c -11,-18 -20,-41 -20,-50 0,-29 -40,-47 -140,-63 -306,-48 -499,-75 -548,-75 -56,-1 -79,-3 -297,-34 -104,-15 -112,-18 -141,-50 -16,-19 -53,-79 -82,-134 l -52,-99 -10,-369 c -5,-203 -14,-540 -20,-749 -5,-209 -14,-499 -20,-645 -22,-612 -22,-601 5,-635 l 25,-30 h 1489 c 819,0 1493,3 1497,8 4,4 2,213 -4,465 -7,251 -17,664 -22,917 -6,253 -14,588 -19,745 l -8,285 -42,105 c -64,159 -67,163 -137,177 -192,38 -330,55 -584,73 -359,25 -457,37 -498,58 -29,15 -34,15 -43,2 -5,-8 -8,-39 -5,-69 6,-66 -13,-121 -42,-121 -22,0 -38,16 -44,45 -2,14 -15,21 -48,27 -55,9 -90,-10 -90,-48 0,-25 2,-26 36,-20 42,8 84,-14 84,-44 0,-16 7,-20 33,-20 36,0 57,-15 57,-41 0,-10 11,-30 23,-46 37,-44 77,-131 77,-166 -1,-42 -31,-109 -62,-133 -13,-10 -27,-25 -31,-31 -9,-14 11,-91 29,-113 28,-35 44,-82 44,-128 0,-47 -3,-52 -59,-105 -40,-38 -68,-57 -85,-57 -30,0 -56,-24 -56,-53 0,-31 14,-49 52,-66 26,-13 36,-26 49,-66 18,-59 40,-65 73,-22 17,23 21,44 23,115 l 1,87 40,42 c 49,51 71,133 55,196 -6,22 -7,54 -3,75 5,20 13,66 20,102 6,36 23,91 36,124 13,33 24,78 24,101 0,99 50,94 99,-11 26,-57 31,-77 30,-143 0,-121 -25,-332 -43,-381 -10,-25 -22,-67 -27,-95 -6,-27 -17,-65 -25,-83 -19,-41 -21,-176 -4,-197 22,-26 43,-16 118,54 66,62 72,71 72,108 0,22 3,55 6,72 6,28 10,31 44,31 49,0 60,14 140,173 37,73 76,150 88,172 41,78 75,161 92,225 23,90 42,87 56,-10 6,-41 19,-102 29,-136 l 17,-60 -30,-60 c -16,-32 -35,-75 -40,-94 -30,-98 -53,-148 -78,-174 -15,-16 -37,-45 -47,-65 -39,-73 -87,-138 -110,-148 -13,-6 -64,-54 -113,-107 -66,-71 -103,-103 -142,-121 -32,-15 -52,-30 -49,-37 6,-19 34,-14 126,26 77,32 86,34 102,20 21,-19 54,-11 129,29 36,19 68,29 92,28 30,-1 44,6 70,32 18,17 53,40 78,51 25,10 53,22 62,27 10,5 31,9 47,9 20,0 32,6 35,18 4,10 35,37 71,60 39,24 69,52 75,67 7,20 16,26 33,23 34,-5 33,-42 -2,-108 -17,-32 -31,-64 -31,-71 0,-31 -50,-83 -115,-121 -38,-22 -92,-57 -120,-76 -47,-34 -74,-46 -204,-94 -30,-11 -68,-30 -83,-43 -16,-13 -45,-27 -66,-30 -65,-10 -109,-25 -122,-40 -10,-12 -3,-23 37,-63 57,-57 82,-72 117,-72 14,0 41,-7 61,-15 19,-8 51,-22 71,-30 34,-15 38,-14 56,2 12,11 33,16 56,15 143,-7 195,-13 209,-21 9,-5 51,-7 93,-4 62,5 79,3 93,-11 37,-37 15,-44 -181,-51 -298,-11 -361,-11 -457,3 -277,39 -405,68 -459,103 -22,15 -50,29 -61,31 -33,5 -29,-29 7,-63 18,-17 47,-44 63,-60 17,-16 40,-29 52,-29 21,0 53,-24 53,-39 0,-7 59,-53 119,-93 14,-10 38,-18 53,-18 23,0 28,-5 34,-35 6,-32 15,-40 90,-81 46,-25 82,-50 78,-55 -3,-5 -21,-9 -40,-9 -31,0 -35,-3 -32,-22 2,-14 15,-29 33,-37 26,-13 33,-12 67,8 32,18 42,20 61,10 45,-23 47,-29 29,-56 l -16,-26 50,7 c 48,6 51,5 62,-19 11,-24 15,-25 62,-19 42,6 53,4 64,-11 8,-12 20,-16 35,-12 30,7 27,-17 -5,-42 -32,-25 -40,-26 -78,-6 -16,9 -63,18 -105,21 -42,3 -89,12 -106,19 -16,7 -48,18 -70,25 -22,7 -51,21 -64,31 -13,11 -34,19 -46,19 -13,0 -42,16 -65,35 -27,23 -52,35 -72,35 -52,0 -93,28 -178,123 -46,51 -93,98 -104,105 -12,8 -36,45 -54,83 -18,38 -45,83 -59,100 -25,29 -27,30 -40,13 -18,-24 -16,-91 3,-152 15,-45 15,-53 1,-81 -14,-28 -14,-34 0,-62 16,-31 16,-30 -13,-175 -4,-21 -31,-40 -42,-30 -8,9 -23,89 -32,181 -14,140 -25,209 -33,223 -14,21 -44,13 -66,-15 -11,-16 -33,-40 -48,-55 -15,-15 -34,-42 -43,-59 -22,-47 -38,-47 -42,-2 -5,58 -27,53 -109,-28 -41,-39 -94,-91 -119,-115 -33,-33 -63,-50 -115,-67 -38,-13 -101,-42 -139,-65 -39,-23 -76,-42 -83,-42 -8,0 -31,-9 -53,-20 -35,-18 -58,-20 -212,-20 -158,1 -250,9 -264,23 -25,25 56,83 103,74 20,-4 54,7 121,39 51,24 106,44 122,44 21,0 39,11 65,39 26,28 42,37 56,34 14,-4 31,4 52,25 31,29 124,73 200,94 35,10 97,71 97,96 0,20 -39,23 -98,7 -33,-8 -86,-15 -118,-15 -32,0 -84,-7 -117,-17 -50,-14 -70,-14 -135,-5 -43,7 -117,12 -167,12 -102,0 -119,6 -110,41 l 6,24 -75,-3 -75,-4 -14,33 c -8,19 -24,43 -36,53 -11,11 -21,27 -21,38 0,16 9,18 73,18 39,0 94,-7 120,-15 26,-8 61,-12 76,-9 16,3 31,1 35,-4 4,-7 17,-6 40,3 26,11 40,12 63,3 21,-8 49,-8 103,0 79,11 196,41 218,55 25,16 -7,37 -57,37 -55,0 -109,14 -125,33 -6,8 -32,21 -57,31 -25,9 -58,30 -74,46 -16,17 -35,30 -42,30 -27,0 -98,49 -114,78 -9,17 -29,44 -46,59 -16,15 -47,59 -68,98 -37,66 -39,74 -37,147 2,69 -1,85 -28,138 -53,106 -36,116 68,40 62,-45 72,-57 97,-120 23,-58 36,-76 79,-107 28,-22 59,-55 69,-76 16,-35 20,-37 63,-37 36,0 51,-6 77,-30 31,-29 67,-36 74,-14 2,6 -8,26 -21,45 -39,54 -103,181 -111,219 -4,19 -16,55 -27,79 -18,37 -20,55 -15,135 3,50 13,118 21,151 8,33 18,81 21,108 5,36 10,47 24,47 20,0 41,-19 41,-36 0,-6 20,-47 43,-90 24,-44 50,-97 57,-119 7,-22 30,-77 51,-121 21,-45 39,-89 39,-98 0,-10 13,-34 29,-54 16,-20 40,-59 52,-87 13,-27 38,-68 56,-89 18,-22 33,-47 33,-55 1,-21 18,-42 57,-69 17,-12 35,-31 38,-42 9,-29 29,-24 64,15 42,48 40,69 -8,92 -23,10 -42,27 -45,39 -9,34 -75,166 -98,195 -14,19 -23,52 -30,115 -5,49 -14,116 -19,149 -23,128 -22,205 4,284 24,72 26,75 90,115 35,22 78,48 95,57 23,13 31,26 37,58 5,30 19,53 54,89 53,55 47,25 67,305 4,48 10,87 14,87 10,0 36,-32 43,-53 13,-37 32,-11 35,49 3,46 0,61 -14,71 -28,20 -43,16 -64,-19 z m 125,-2253 c 0,-28 -29,-25 -33,3 -3,19 0,23 15,20 10,-2 18,-12 18,-23 z m -89,-110 c 11,-27 -5,-65 -26,-65 -22,0 -27,29 -10,61 13,23 28,25 36,4 z m 1259,-166 c -8,-12 -32,-12 -40,1 -11,18 5,31 26,20 11,-6 17,-15 14,-21 z m -1247,-88 c 15,-16 37,-32 49,-35 60,-19 100,-86 50,-86 -12,0 -31,6 -42,13 -45,30 -102,40 -148,28 -60,-17 -111,-11 -115,13 -5,23 14,36 54,36 19,0 47,12 70,29 21,16 43,30 47,30 4,1 20,-12 35,-28 z m 612,-76 c 31,-16 66,-25 94,-25 55,0 81,-21 65,-52 -10,-18 -18,-20 -65,-15 -29,3 -64,13 -76,21 -28,20 -58,20 -94,1 -40,-21 -103,-20 -111,2 -4,11 0,21 11,27 10,6 37,23 60,38 50,34 55,34 116,3 z m -1280,-18 c 19,-7 55,-23 80,-36 85,-44 74,-67 -24,-51 -36,7 -85,9 -109,6 -89,-14 -102,-12 -102,9 0,14 17,29 60,52 33,18 60,32 60,33 0,0 16,-6 35,-13 z"
       id="path57"
       inkscape:connector-curvature="0" />
    <path
       d="m 6083,5464 c -44,-22 -63,-46 -69,-86 -5,-27 -1,-40 20,-65 15,-17 39,-34 55,-38 31,-7 101,17 101,34 0,5 -22,29 -50,53 -51,44 -64,77 -32,79 32,2 47,-3 80,-27 17,-14 37,-22 43,-18 21,13 -67,84 -103,84 -7,0 -27,-8 -45,-16 z m 26,-110 c 40,-33 39,-44 -2,-44 -39,0 -57,15 -57,47 0,30 21,29 59,-3 z"
       id="path59"
       inkscape:connector-curvature="0" />
    <path
       d="m 1131,5444 c -26,-22 -31,-33 -31,-71 0,-38 5,-50 34,-79 41,-41 92,-46 144,-14 39,24 55,60 46,106 -15,80 -127,114 -193,58 z m 114,-29 c 50,-49 24,-139 -35,-120 -47,15 -79,102 -48,133 19,19 57,14 83,-13 z"
       id="path61"
       inkscape:connector-curvature="0" />
    <path
       d="m 1787,5403 c -35,-49 -61,-93 -54,-93 2,0 18,5 34,11 24,8 36,22 52,61 12,28 21,55 21,59 0,21 -21,6 -53,-38 z"
       id="path63"
       inkscape:connector-curvature="0" />
    <path
       d="m 3885,5431 c -3,-6 -3,-21 1,-34 5,-20 0,-28 -25,-43 -36,-21 -38,-29 -12,-44 32,-16 55,-12 98,19 28,20 42,39 47,62 3,18 5,33 4,34 -11,9 -108,14 -113,6 z"
       id="path65"
       inkscape:connector-curvature="0" />
    <path
       d="m 879,5401 c -43,-43 -41,-101 5,-147 28,-28 42,-34 75,-34 44,0 105,25 96,39 -3,5 -23,5 -44,0 -51,-11 -88,2 -101,36 -25,65 4,105 74,105 30,0 46,5 50,15 4,12 -6,15 -60,15 -59,0 -68,-3 -95,-29 z"
       id="path67"
       inkscape:connector-curvature="0" />
    <path
       d="m 6291,5333 c -45,-23 -74,-64 -74,-103 0,-40 46,-90 85,-90 32,0 37,16 8,25 -33,10 -50,34 -50,69 0,64 84,102 125,56 19,-21 45,-27 45,-11 0,11 -58,61 -70,61 -5,0 -14,2 -22,5 -7,3 -28,-3 -47,-12 z"
       id="path69"
       inkscape:connector-curvature="0" />
    <path
       d="m 6462,5191 c -23,-32 -51,-65 -64,-74 -20,-14 -21,-18 -8,-26 8,-6 21,-11 28,-11 12,0 112,144 112,161 0,25 -32,2 -68,-50 z"
       id="path71"
       inkscape:connector-curvature="0" />
    <path
       d="m 6551,5134 c -43,-79 -48,-94 -30,-94 6,0 25,-11 43,-25 41,-31 86,-32 113,-2 27,29 74,123 66,131 -13,13 -22,4 -62,-59 -44,-70 -62,-79 -102,-46 l -24,19 33,66 c 36,74 38,86 18,86 -8,0 -33,-34 -55,-76 z"
       id="path73"
       inkscape:connector-curvature="0" />
    <path
       d="m 3861,5123 c -19,-13 -21,-24 -21,-113 0,-88 2,-100 19,-110 55,-29 173,7 142,43 -7,9 -22,17 -34,19 -18,2 -22,10 -22,36 0,19 -5,32 -12,32 -9,0 -13,16 -13,49 0,40 -4,50 -19,54 -11,3 -29,-2 -40,-10 z"
       id="path75"
       inkscape:connector-curvature="0" />
    <path
       d="m 6800,5095 c 0,-10 10,-15 29,-15 32,0 56,-22 48,-44 -3,-7 -26,-17 -51,-20 -52,-8 -76,-27 -76,-60 0,-30 19,-45 63,-53 44,-7 57,12 17,26 -28,9 -49,35 -38,46 3,3 27,9 53,14 74,14 94,52 50,96 -28,29 -95,36 -95,10 z"
       id="path77"
       inkscape:connector-curvature="0" />
    <path
       d="m 1227,4708 c -10,-28 8,-38 141,-74 27,-7 8,-25 -64,-59 -42,-20 -73,-40 -68,-45 5,-4 37,-18 71,-30 86,-31 96,-45 46,-65 -75,-30 -108,-50 -111,-67 -2,-10 2,-18 9,-18 18,0 268,101 274,110 3,4 -33,23 -80,41 -47,18 -85,37 -85,41 0,4 36,26 80,49 44,22 80,45 80,49 0,4 -51,21 -112,39 -155,43 -174,46 -181,29 z"
       id="path79"
       inkscape:connector-curvature="0" />
    <path
       d="m 3875,4652 c 4,-20 1,-33 -10,-42 -21,-17 -19,-36 7,-54 14,-10 27,-12 37,-6 9,5 23,5 32,0 26,-15 59,15 59,54 0,42 -18,58 -59,50 -24,-5 -31,-3 -31,10 0,10 -8,16 -21,16 -17,0 -20,-4 -14,-28 z"
       id="path81"
       inkscape:connector-curvature="0" />
    <path
       d="m 4275,4621 c -11,-19 -23,-107 -18,-134 4,-22 10,-27 27,-25 17,2 23,13 30,61 7,43 6,63 -4,82 -14,26 -25,31 -35,16 z"
       id="path83"
       inkscape:connector-curvature="0" />
    <path
       d="m 3481,4431 c -11,-7 -13,-29 -8,-102 5,-78 11,-104 36,-154 17,-33 31,-66 31,-72 0,-7 4,-13 9,-13 5,0 16,-17 24,-38 9,-21 28,-54 44,-72 15,-18 35,-54 44,-79 26,-75 99,-87 99,-16 0,28 -9,46 -44,83 -50,54 -101,150 -111,208 -10,58 -27,106 -47,133 -10,13 -22,40 -28,60 -13,50 -31,73 -49,62 z"
       id="path85"
       inkscape:connector-curvature="0" />
    <path
       d="m 3034,4356 c -15,-39 13,-189 43,-232 12,-16 28,-46 37,-67 8,-21 36,-62 61,-91 25,-29 45,-57 45,-62 0,-6 13,-18 30,-27 16,-10 37,-31 47,-48 19,-33 116,-109 138,-109 28,0 21,27 -24,80 -25,30 -58,67 -73,83 -15,15 -29,36 -33,46 -3,11 -16,26 -29,35 -33,21 -107,152 -156,276 -12,30 -28,62 -35,70 -7,8 -15,24 -16,34 -5,25 -27,32 -35,12 z"
       id="path87"
       inkscape:connector-curvature="0" />
    <path
       d="m 6564,4339 c -3,-6 -1,-16 5,-22 6,-6 11,-24 11,-39 0,-38 -26,-37 -75,2 -49,39 -84,43 -117,13 -36,-32 -10,-143 32,-143 24,0 25,7 4,49 -17,35 -13,61 11,61 8,0 35,-16 61,-35 52,-40 85,-44 115,-14 17,17 20,29 16,56 -10,59 -45,100 -63,72 z"
       id="path89"
       inkscape:connector-curvature="0" />
    <path
       d="m 1304,4320 c -11,-4 -33,-22 -47,-40 -22,-26 -27,-41 -27,-89 0,-47 4,-61 23,-79 27,-25 68,-36 102,-28 21,5 25,12 25,44 0,73 13,144 27,149 8,3 25,-5 39,-18 23,-21 25,-30 22,-84 -2,-50 0,-60 14,-63 27,-5 51,52 46,108 -4,38 -12,54 -39,78 -31,29 -40,31 -99,31 -36,0 -74,-4 -86,-9 z m 31,-110 c 0,-52 -1,-55 -25,-55 -22,0 -25,5 -28,37 -4,45 13,80 36,76 14,-3 17,-15 17,-58 z"
       id="path91"
       inkscape:connector-curvature="0" />
    <path
       d="m 4226,4301 c -4,-5 -9,-31 -12,-58 -3,-26 -16,-82 -30,-123 -50,-158 -64,-210 -66,-254 0,-25 1,-49 5,-52 14,-14 48,11 74,54 37,62 51,148 52,310 1,119 -5,152 -23,123 z"
       id="path93"
       inkscape:connector-curvature="0" />
    <path
       d="m 6501,4134 c -66,-18 -71,-21 -71,-45 0,-25 21,-24 111,1 65,17 74,18 100,4 23,-12 29,-21 29,-49 0,-42 -21,-57 -100,-75 -30,-7 -63,-17 -72,-22 -24,-12 -23,-48 1,-48 24,0 223,59 234,69 4,4 1,21 -8,37 -8,16 -15,43 -15,60 0,19 -9,41 -25,58 -20,22 -32,26 -77,25 -29,0 -77,-7 -107,-15 z"
       id="path95"
       inkscape:connector-curvature="0" />
    <path
       d="m 1229,4031 c -25,-25 -29,-37 -29,-81 0,-48 2,-51 23,-48 18,2 23,11 27,48 7,67 35,62 74,-15 31,-59 32,-60 77,-63 41,-3 49,0 73,28 20,25 26,42 26,81 0,49 -1,50 -27,47 -27,-3 -28,-5 -25,-50 4,-48 3,-48 -27,-48 -28,0 -34,6 -57,54 -38,80 -85,96 -135,47 z"
       id="path97"
       inkscape:connector-curvature="0" />
    <path
       d="m 5050,3995 c -30,-32 -10,-33 27,0 20,17 23,24 12,25 -8,0 -26,-11 -39,-25 z"
       id="path99"
       inkscape:connector-curvature="0" />
    <path
       d="m 3895,3908 c 4,-29 10,-77 14,-105 5,-34 15,-61 30,-77 29,-30 22,-42 -45,-81 -24,-14 -48,-34 -54,-44 -5,-11 -33,-27 -62,-36 -29,-10 -100,-37 -158,-60 -58,-23 -123,-45 -145,-49 -51,-9 -95,-26 -95,-37 0,-5 28,-9 63,-9 51,0 71,6 112,30 30,18 64,30 85,30 19,0 53,10 75,21 22,12 60,28 86,35 26,8 52,21 59,29 16,19 96,19 130,1 28,-16 60,-5 60,19 0,9 11,25 25,37 28,24 31,44 10,72 -8,11 -15,29 -15,40 0,33 -62,155 -82,162 -10,3 -18,10 -18,15 0,16 -48,59 -66,59 -15,0 -16,-7 -9,-52 z"
       id="path101"
       inkscape:connector-curvature="0" />
    <path
       d="m 4787,3884 c -53,-27 -58,-39 -22,-48 34,-9 74,3 85,24 25,46 0,55 -63,24 z"
       id="path103"
       inkscape:connector-curvature="0" />
    <path
       d="m 2910,3894 c 0,-13 113,-134 125,-134 7,0 45,-25 83,-55 55,-42 78,-55 105,-55 19,0 40,-7 47,-15 11,-13 35,-15 133,-13 85,2 122,7 125,16 2,7 -6,12 -20,12 -12,1 -34,7 -48,15 -14,8 -39,14 -57,15 -18,0 -66,18 -108,40 -42,22 -87,40 -101,40 -15,0 -38,13 -56,31 -17,16 -59,42 -94,55 -35,14 -68,32 -75,40 -11,14 -59,20 -59,8 z"
       id="path105"
       inkscape:connector-curvature="0" />
    <path
       d="m 6578,3877 c -80,-10 -89,-17 -63,-51 9,-11 15,-41 15,-68 0,-39 5,-54 26,-75 22,-21 32,-25 66,-20 57,8 71,26 76,97 2,33 9,63 14,66 16,10 36,-16 43,-57 5,-29 12,-39 25,-39 10,0 22,4 25,10 11,18 -17,93 -45,122 -32,31 -47,33 -182,15 z m 70,-101 c 4,-46 -8,-61 -42,-52 -30,7 -40,34 -26,70 8,22 15,27 38,24 24,-3 27,-8 30,-42 z"
       id="path107"
       inkscape:connector-curvature="0" />
    <path
       d="m 1153,3851 c -52,-20 -73,-38 -52,-45 8,-2 22,-7 31,-10 10,-3 20,-20 24,-40 7,-42 26,-46 43,-10 11,25 15,26 69,22 31,-3 74,-13 96,-22 38,-16 38,-17 32,-56 -5,-35 -4,-40 14,-40 25,0 40,29 40,79 0,52 -24,69 -126,87 -49,8 -84,20 -98,33 -12,12 -24,21 -27,20 -2,-1 -23,-9 -46,-18 z"
       id="path109"
       inkscape:connector-curvature="0" />
    <path
       d="m 4563,3803 c -21,-8 -15,-33 8,-33 25,0 59,17 59,30 0,10 -45,12 -67,3 z"
       id="path111"
       inkscape:connector-curvature="0" />
    <path
       d="m 4351,3751 c -8,-5 -42,-13 -75,-16 -72,-9 -113,-22 -100,-34 10,-8 242,4 252,13 8,9 -29,46 -47,46 -9,0 -22,-4 -30,-9 z"
       id="path113"
       inkscape:connector-curvature="0" />
    <path
       d="m 6680,3634 c -58,-6 -109,-13 -113,-13 -5,-1 -7,-11 -5,-23 3,-22 5,-23 109,-19 71,2 109,0 113,-8 4,-6 18,-11 32,-11 23,0 24,2 18,38 -4,20 -7,38 -8,38 -8,9 -60,9 -146,-2 z"
       id="path115"
       inkscape:connector-curvature="0" />
    <path
       d="m 6580,3501 c -16,-32 -12,-103 9,-137 25,-40 95,-69 148,-61 73,12 113,60 113,137 0,53 -10,73 -33,64 -13,-5 -17,-19 -17,-55 0,-63 -23,-89 -81,-89 -32,0 -47,6 -71,30 -28,29 -30,34 -24,80 6,46 5,50 -13,50 -11,0 -25,-9 -31,-19 z"
       id="path117"
       inkscape:connector-curvature="0" />
    <path
       d="m 3887,3493 c -16,-15 -6,-34 15,-31 29,4 38,38 10,38 -10,0 -22,-3 -25,-7 z"
       id="path119"
       inkscape:connector-curvature="0" />
    <path
       d="m 3688,3379 c -50,-38 -78,-67 -78,-80 0,-23 -3,-23 51,2 67,33 131,89 127,112 -2,11 -7,22 -13,24 -5,1 -45,-24 -87,-58 z"
       id="path121"
       inkscape:connector-curvature="0" />
    <path
       d="m 3072,3387 c -15,-18 -5,-27 30,-27 23,0 29,4 26,18 -4,21 -41,28 -56,9 z"
       id="path123"
       inkscape:connector-curvature="0" />
    <path
       d="m 6570,3257 c 0,-29 -1,-29 118,-51 50,-10 80,-21 94,-36 27,-29 42,-21 46,26 l 3,40 -80,18 c -45,9 -103,20 -131,23 -49,6 -50,5 -50,-20 z"
       id="path125"
       inkscape:connector-curvature="0" />
    <path
       d="m 3488,3230 c -40,-12 -106,-51 -112,-67 -7,-18 74,-18 118,1 33,14 53,46 41,66 -7,11 -10,11 -47,0 z"
       id="path127"
       inkscape:connector-curvature="0" />
    <path
       d="m 6574,3165 c -32,-13 -49,-42 -59,-99 -6,-29 -4,-37 10,-43 22,-8 45,20 45,54 0,13 7,26 17,30 22,9 50,-27 58,-77 7,-43 43,-80 77,-80 11,0 33,13 49,29 23,23 29,38 29,71 0,34 -3,41 -17,38 -9,-2 -21,-18 -25,-36 -16,-62 -68,-46 -68,20 0,71 -58,118 -116,93 z"
       id="path129"
       inkscape:connector-curvature="0" />
    <path
       d="m 3270,3100 c -76,-23 -193,-101 -176,-117 2,-2 27,2 57,8 51,11 159,78 159,99 0,14 -13,18 -40,10 z"
       id="path131"
       inkscape:connector-curvature="0" />
    <path
       d="m 6340,2941 c -20,-10 -36,-27 -38,-40 -4,-26 18,-28 53,-5 42,27 64,9 167,-139 40,-59 66,-87 77,-85 27,6 17,63 -19,104 -30,35 -55,83 -46,91 2,2 41,-5 86,-17 75,-19 85,-20 99,-6 10,10 12,19 5,26 -9,9 -307,90 -334,90 -8,0 -31,-8 -50,-19 z"
       id="path133"
       inkscape:connector-curvature="0" />
    <path
       d="m 1581,2914 c -32,-40 -25,-71 28,-127 22,-24 23,-29 11,-37 -23,-15 -36,-12 -70,16 -24,21 -34,24 -43,15 -20,-20 48,-71 94,-71 34,0 44,7 104,75 64,71 73,95 37,95 -10,0 -29,14 -44,30 -35,40 -87,42 -117,4 z m 89,-29 c 20,-22 22,-28 12,-51 -9,-18 -19,-24 -35,-22 -29,4 -52,50 -37,78 14,27 32,25 60,-5 z"
       id="path135"
       inkscape:connector-curvature="0" />
    <path
       d="m 6342,2788 c -19,-19 -16,-25 48,-100 33,-40 60,-79 60,-88 0,-24 -38,-60 -63,-60 -14,0 -46,26 -92,75 -65,70 -71,74 -89,60 -19,-14 -19,-16 7,-51 58,-83 220,-255 235,-252 27,5 26,36 -2,69 -32,38 -33,52 -2,72 45,30 56,48 56,89 0,44 -18,73 -94,156 -42,46 -46,48 -64,30 z"
       id="path137"
       inkscape:connector-curvature="0" />
    <path
       d="m 1819,2738 c -27,-29 -49,-56 -49,-60 0,-3 -15,-11 -34,-18 -38,-12 -46,-30 -46,-101 0,-46 20,-79 48,-79 16,0 15,6 -3,34 -21,31 -10,56 25,56 31,0 47,14 30,25 -17,11 -1,46 51,108 27,32 49,63 49,67 0,28 -27,15 -71,-32 z"
       id="path139"
       inkscape:connector-curvature="0" />
    <path
       d="m 1921,2579 -74,-80 39,-40 c 21,-21 44,-39 51,-39 15,0 17,26 3,35 -5,3 -10,21 -10,39 0,25 12,46 50,90 28,31 50,61 50,67 0,28 -44,-1 -109,-72 z"
       id="path141"
       inkscape:connector-curvature="0" />
    <path
       d="m 5944,2556 c -3,-8 6,-46 21,-83 40,-104 65,-166 75,-188 5,-11 14,-32 20,-47 11,-33 23,-34 92,-8 120,45 151,123 81,201 l -38,42 -80,-7 -80,-6 -20,53 c -15,38 -26,53 -43,55 -13,2 -25,-3 -28,-12 z m 241,-161 c 38,-37 32,-76 -17,-101 -41,-21 -63,-10 -82,39 -21,56 -20,66 7,77 38,15 67,11 92,-15 z"
       id="path143"
       inkscape:connector-curvature="0" />
    <path
       d="m 2095,2446 c -36,-30 -79,-58 -95,-61 -17,-4 -30,-10 -30,-13 1,-14 27,-42 39,-42 21,0 171,134 171,152 0,28 -13,22 -85,-36 z"
       id="path145"
       inkscape:connector-curvature="0" />
    <path
       d="m 2555,2471 c -43,-5 -50,-9 -53,-29 -2,-14 28,-85 76,-180 44,-86 97,-200 117,-252 21,-52 48,-115 60,-140 12,-25 25,-62 29,-82 4,-21 11,-40 17,-43 10,-7 147,58 196,93 56,39 230,120 323,150 110,35 239,58 395,70 107,9 140,7 350,-18 202,-24 439,-101 733,-239 84,-40 160,-71 169,-69 9,2 28,39 49,98 63,178 167,363 326,577 17,24 29,45 26,48 -3,3 -581,8 -1284,10 -704,3 -1324,7 -1379,8 -55,2 -122,1 -150,-2 z"
       id="path147"
       inkscape:connector-curvature="0" />
    <path
       d="m 2182,2343 c -79,-39 -108,-133 -57,-187 23,-25 55,-35 55,-18 0,5 -9,17 -20,27 -32,29 -27,87 10,118 46,39 68,43 97,15 14,-12 29,-33 34,-45 10,-26 37,-31 45,-9 13,35 -67,116 -114,116 -9,0 -32,-8 -50,-17 z"
       id="path149"
       inkscape:connector-curvature="0" />
    <path
       d="m 2342,2145 c -36,-16 -47,-45 -39,-111 3,-33 1,-47 -9,-51 -20,-8 -41,13 -48,47 -8,41 -36,40 -36,-1 0,-40 15,-66 48,-83 25,-13 34,-12 77,3 148,53 152,56 132,80 -7,9 -19,35 -25,57 -18,62 -49,80 -100,59 z m 50,-52 c 24,-21 23,-45 -3,-69 -37,-33 -75,17 -49,65 13,25 27,26 52,4 z"
       id="path151"
       inkscape:connector-curvature="0" />
    <path
       d="m 5310,1940 c 0,-12 12,-26 33,-36 17,-9 39,-22 47,-29 8,-7 28,-16 45,-19 39,-10 55,-24 55,-48 0,-17 4,-19 28,-13 15,4 45,8 67,10 44,4 85,41 85,76 0,25 -8,24 -37,-7 -14,-16 -32,-24 -46,-22 -18,2 -21,8 -19,36 4,36 -4,39 -45,16 -27,-15 -31,-15 -106,20 -88,41 -107,44 -107,16 z"
       id="path153"
       inkscape:connector-curvature="0" />
    <path
       d="m 2395,1881 c -44,-15 -86,-29 -92,-31 -10,-4 -10,-18 0,-66 16,-79 29,-94 81,-94 55,0 166,37 166,56 0,18 -31,18 -95,-2 -81,-26 -128,-2 -110,55 7,22 18,28 105,50 52,14 65,21 65,37 0,28 -28,27 -120,-5 z"
       id="path155"
       inkscape:connector-curvature="0" />
    <path
       d="m 4213,1873 c -7,-2 -13,-11 -13,-19 0,-10 12,-14 40,-14 52,0 100,-24 100,-51 0,-29 -23,-33 -79,-14 -59,19 -91,9 -91,-29 0,-13 -8,-33 -17,-44 -17,-20 -22,-20 -123,-9 -115,13 -131,26 -89,68 19,19 29,21 85,16 53,-5 64,-4 64,9 0,20 -42,34 -103,34 -85,0 -127,-46 -127,-139 0,-41 5,-56 28,-82 37,-41 112,-51 173,-24 l 40,18 28,-30 c 18,-20 48,-36 83,-47 76,-22 85,-21 91,12 2,15 11,42 18,60 13,30 12,37 -9,73 -13,23 -22,42 -20,44 2,1 21,6 43,12 83,19 84,106 1,144 -39,18 -96,23 -123,12 z m -173,-229 c 13,-12 13,-16 0,-28 -30,-29 -65,-29 -99,-1 -23,20 -29,31 -21,40 13,16 99,8 120,-11 z m 211,16 c 13,-7 19,-21 19,-45 0,-39 -24,-58 -68,-53 -23,2 -28,9 -30,36 -5,55 34,86 79,62 z"
       id="path157"
       inkscape:connector-curvature="0" />
    <path
       d="m 3773,1810 c -33,-20 -33,-20 -32,-97 0,-43 4,-116 8,-162 9,-86 23,-113 49,-87 11,11 12,38 3,151 -10,131 -10,138 9,162 40,51 20,68 -37,33 z"
       id="path159"
       inkscape:connector-curvature="0" />
    <path
       d="m 3635,1810 c -37,-14 -50,-41 -50,-98 0,-35 -5,-57 -13,-60 -7,-2 -12,6 -12,20 0,15 -15,39 -38,61 -32,31 -45,37 -81,37 -110,0 -168,-91 -123,-193 16,-37 27,-47 65,-62 81,-31 150,-2 181,75 9,22 20,40 25,40 5,0 12,-26 16,-57 14,-129 15,-133 41,-133 29,0 29,-1 8,172 -16,130 -16,131 6,159 29,41 18,57 -25,39 z m -163,-107 c 22,-20 42,-88 34,-119 -8,-29 -38,-46 -74,-42 -58,7 -98,131 -55,173 19,20 67,14 95,-12 z"
       id="path161"
       inkscape:connector-curvature="0" />
    <path
       d="m 5254,1795 c -12,-8 -31,-37 -43,-64 -19,-46 -20,-54 -7,-83 24,-57 59,-81 124,-86 48,-3 62,0 86,19 31,25 56,74 56,113 0,29 -41,81 -81,101 -36,19 -109,19 -135,0 z m 123,-55 c 35,-21 49,-55 39,-95 -9,-37 -43,-49 -94,-36 -69,19 -101,80 -66,129 20,28 77,30 121,2 z"
       id="path163"
       inkscape:connector-curvature="0" />
    <path
       d="m 4440,1681 c -94,-49 -110,-181 -28,-231 50,-30 120,-27 157,8 52,47 46,60 -44,96 -81,33 -99,52 -75,81 16,19 77,19 110,0 31,-18 63,-19 58,-2 -6,16 -98,66 -123,67 -11,0 -36,-8 -55,-19 z m 47,-152 c 55,-27 55,-53 1,-57 -42,-4 -78,24 -78,58 0,26 22,26 77,-1 z"
       id="path165"
       inkscape:connector-curvature="0" />
    <path
       d="m 3175,1675 c -62,-22 -95,-65 -95,-125 0,-91 83,-154 171,-130 54,15 86,36 92,60 7,26 -9,25 -58,-5 -22,-14 -48,-25 -57,-25 -53,0 -98,52 -98,113 0,42 31,71 86,81 26,5 34,12 32,24 -4,22 -25,24 -73,7 z"
       id="path167"
       inkscape:connector-curvature="0" />
  </g>
  <text
     xml:space="preserve"
     style="font-style:normal;font-variant:normal;font-weight:bold;font-stretch:normal;font-size:266.66665649px;line-height:1.25;font-family:sans-serif;-inkscape-font-specification:'sans-serif Bold';letter-spacing:0px;word-spacing:0px;fill:#000000;fill-opacity:1;stroke:none;stroke-width:10"
     x="1006.9366"
     y="216.58997"
     id="text3883"><tspan
       sodipodi:role="line"
       id="tspan3881"
       x="1006.9366"
       y="452.52747"
       style="font-size:266.66665649px;stroke-width:10" /></text>
  <text
     xml:space="preserve"
     style="font-style:normal;font-variant:normal;font-weight:bold;font-stretch:normal;font-size:213.33332825px;line-height:1.25;font-family:sans-serif;-inkscape-font-specification:'sans-serif Bold';letter-spacing:0px;word-spacing:0px;fill:#000000;fill-opacity:1;stroke:none;stroke-width:10"
     x="988.46069"
     y="188.8761"
     id="text3887"><tspan
       sodipodi:role="line"
       id="tspan3885"
       x="988.46069"
       y="377.6261"
       style="font-size:213.33332825px;stroke-width:10" /></text>
  <text
     xml:space="preserve"
     style="font-style:normal;font-variant:normal;font-weight:bold;font-stretch:normal;font-size:213.33332825px;line-height:1.25;font-family:sans-serif;-inkscape-font-specification:'sans-serif Bold';letter-spacing:0px;word-spacing:0px;fill:#000000;fill-opacity:1;stroke:none;stroke-width:10"
     x="1006.9366"
     y="142.6864"
     id="text3891"><tspan
       sodipodi:role="line"
       id="tspan3889"
       x="1006.9366"
       y="331.4364"
       style="font-size:213.33332825px;stroke-width:10" /></text>
</svg>
